<?xml version="1.0"?>
<svg xmlns="http://www.w3.org/2000/svg" xmlns:xlink="http://www.w3.org/1999/xlink" version="1.1" id="Layer_1" x="0px" y="0px" viewBox="0 0 512 512" style="enable-background:new 0 0 512 512;" xml:space="preserve" width="512px" height="512px" class=""><g><path style="fill:#FCFAFA" d="M488.727,186.182h-23.273H256H46.545H23.273C10.42,186.182,0,175.762,0,162.909v325.818  C0,501.582,10.42,512,23.273,512H256h232.727C501.58,512,512,501.582,512,488.727V162.909  C512,175.762,501.58,186.182,488.727,186.182z" data-original="#FFE477" class="" data-old_color="#F9F6F6"/><path style="fill:#D9D9DD" d="M488.727,46.545H356.848h-23.273h-23.273H256h-54.303h-23.273h-23.273H23.273  C10.42,46.545,0,56.965,0,69.818v93.091c0,12.853,10.42,23.273,23.273,23.273h23.273H256h209.455h23.273  c12.853,0,23.273-10.42,23.273-23.273V69.818C512,56.965,501.58,46.545,488.727,46.545z" data-original="#6E76E5" class="" data-old_color="#CECBCB"/><path style="fill:#C9C9C9" d="M356.848,46.545V23.273C356.848,10.42,346.428,0,333.576,0s-23.273,10.42-23.273,23.273v23.273  h23.273H356.848z" data-original="#A78966" class="" data-old_color="#A1A1A0"/><path style="fill:#C9C9C9" d="M201.697,46.545V23.273C201.697,10.42,191.277,0,178.424,0c-12.853,0-23.273,10.42-23.273,23.273  v23.273h23.273H201.697z" data-original="#806749" class="" data-old_color="#CACACA"/><path style="fill:#D9D9DD" d="M342.274,262.817c-9.087-9.089-23.824-9.089-32.912,0L256,316.179l-23.273,23.273l-30.09-30.089  c-9.087-9.089-23.824-9.089-32.912,0s-9.089,23.824,0,32.912l46.545,46.545c4.544,4.544,10.501,6.816,16.457,6.816  s11.913-2.271,16.455-6.817l6.817-6.817l86.274-86.274C351.364,286.641,351.364,271.905,342.274,262.817z" data-original="#A4E276" class="active-path" data-old_color="#64C37D"/><path style="fill:#D9D9DD" d="M232.727,339.451l-30.09-30.089c-9.087-9.089-23.824-9.089-32.912,0s-9.089,23.824,0,32.912  l46.545,46.545c4.544,4.544,10.501,6.816,16.457,6.816s11.913-2.271,16.455-6.817l6.817-6.816v-65.825L232.727,339.451z" data-original="#64C37D" class="" data-old_color="#64C37D"/><path style="fill:#FFFEFE" d="M249.183,388.819c-4.543,4.546-10.499,6.817-16.455,6.817s-11.913-2.271-16.455-6.817l-46.545-46.545  c-9.089-9.089-9.089-23.824,0-32.912c9.087-9.089,23.824-9.089,32.912,0l30.089,30.09L256,316.179V186.182H46.545H23.273  C10.42,186.182,0,175.762,0,162.909v325.818C0,501.582,10.42,512,23.273,512H256V382.003L249.183,388.819z" data-original="#EEBF00" class="" data-old_color="#FFFFFF"/><path style="fill:#D9D9DD" d="M23.273,186.182h23.273H256V46.545h-54.303h-23.273h-23.273H23.273C10.42,46.545,0,56.965,0,69.818  v93.091C0,175.762,10.42,186.182,23.273,186.182z" data-original="#424EDE" class="" data-old_color="#D7D7DC"/></g> </svg>
