<?xml version="1.0"?>
<svg xmlns="http://www.w3.org/2000/svg" xmlns:xlink="http://www.w3.org/1999/xlink" version="1.1" id="Layer_1" x="0px" y="0px" viewBox="0 0 512 512" style="enable-background:new 0 0 512 512;" xml:space="preserve" width="512px" height="512px" class=""><g><g>
	<path style="fill:#C6C6C6" d="M337.931,165.005c-6.7,0-12.133-5.433-12.133-12.133c0-6.7,5.433-12.133,12.133-12.133   c20.07,0,36.398-16.328,36.398-36.398s-16.328-36.398-36.398-36.398c-6.7,0-12.133-5.433-12.133-12.133s5.433-12.133,12.133-12.133   c33.45,0,60.664,27.214,60.664,60.664S371.382,165.005,337.931,165.005z" data-original="#174461" class="active-path" data-old_color="#C8C7C7"/>
	<path style="fill:#C6C6C6" d="M174.139,165.005c-6.7,0-12.133-5.433-12.133-12.133c0-6.7,5.433-12.133,12.133-12.133   c20.07,0,36.398-16.328,36.398-36.398s-16.328-36.398-36.398-36.398c-6.7,0-12.133-5.433-12.133-12.133s5.433-12.133,12.133-12.133   c33.45,0,60.664,27.214,60.664,60.664S207.591,165.005,174.139,165.005z" data-original="#174461" class="active-path" data-old_color="#C8C7C7"/>
	<polygon style="fill:#C6C6C6" points="434.922,104.341 262.923,286.332 357.915,468.322 512,468.322  " data-original="#174461" class="active-path" data-old_color="#C8C7C7"/>
</g><polygon style="fill:#E6E2E5" points="77.078,104.341 56.524,201.403 235.481,225.668 414.439,201.403 434.993,104.341 " data-original="#FF4181" class="" data-old_color="#E6E1E4"/><polygon style="fill:#FAFAFA" points="0,468.322 357.915,468.322 414.439,201.403 56.524,201.403 " data-original="#FFC0D5" class="" data-old_color="#FFC0D5"/><g>
	<path style="fill:#C6C6C6" d="M337.931,165.005c-33.45,0-60.663-27.214-60.663-60.664s27.214-60.664,60.663-60.664   c6.7,0,12.133,5.433,12.133,12.133s-5.433,12.133-12.133,12.133c-20.07,0-36.398,16.328-36.398,36.398s16.328,36.398,36.398,36.398   c6.7,0,12.133,5.433,12.133,12.133C350.064,159.572,344.632,165.005,337.931,165.005z" data-original="#174461" class="active-path" data-old_color="#C8C7C7"/>
	<path style="fill:#C6C6C6" d="M174.139,165.005c-33.45,0-60.664-27.214-60.664-60.664s27.214-60.664,60.664-60.664   c6.7,0,12.133,5.433,12.133,12.133s-5.433,12.133-12.133,12.133c-20.07,0-36.398,16.328-36.398,36.398s16.328,36.398,36.398,36.398   c6.7,0,12.133,5.433,12.133,12.133C186.272,159.572,180.84,165.005,174.139,165.005z" data-original="#174461" class="active-path" data-old_color="#C8C7C7"/>
</g></g> </svg>
