<?xml version="1.0" encoding="iso-8859-1"?>
<!-- Generator: Adobe Illustrator 19.0.0, SVG Export Plug-In . SVG Version: 6.00 Build 0)  -->
<svg xmlns="http://www.w3.org/2000/svg" xmlns:xlink="http://www.w3.org/1999/xlink" version="1.1" id="Layer_1" x="0px" y="0px" viewBox="0 0 512 512" style="enable-background:new 0 0 512 512;" xml:space="preserve" width="512" height="512">
<linearGradient id="SVGID_1_" gradientUnits="userSpaceOnUse" x1="0" y1="256.0001" x2="512.0001" y2="256.0001">
	<stop offset="0" style="stop-color:#00F2FE"/>
	<stop offset="0.0208" style="stop-color:#03EFFE"/>
	<stop offset="0.2931" style="stop-color:#24D2FE"/>
	<stop offset="0.5538" style="stop-color:#3CBDFE"/>
	<stop offset="0.7956" style="stop-color:#4AB0FE"/>
	<stop offset="1" style="stop-color:#4FACFE"/>
</linearGradient>
<path style="fill:url(#SVGID_1_);" d="M512,210c0,36.471-9.5,72.402-27.473,103.91c-5.472,9.593-17.686,12.937-27.282,7.462  c-9.594-5.473-12.936-17.688-7.462-27.282C464.318,268.61,472,239.532,472,210c0-93.738-76.262-170-170-170s-170,76.262-170,170  s76.262,170,170,170c29.172,0,57.94-7.508,83.196-21.711c9.629-5.415,21.821-1.999,27.236,7.629  c5.414,9.628,1.999,21.821-7.629,27.236C373.574,410.717,338.026,420,302,420c-50.477,0-96.848-17.906-133.105-47.694L34.094,506.19  C30.193,510.065,25.096,512,20,512c-5.142,0-10.281-1.97-14.19-5.906c-7.784-7.837-7.74-20.5,0.097-28.284l134.619-133.703  C110.24,307.704,92,260.944,92,210C92,94.206,186.206,0,302,0S512,94.206,512,210z M301,292L301,292c-11.046,0-20,8.954-20,20  s8.954,20,20,20l0,0c11.046,0,20-8.954,20-20S312.046,292,301,292z M321.993,246.713c0-6.483,3.703-12.254,9.434-14.701  c27.691-11.821,45.58-38.915,45.573-69.022c0-0.281-0.006-0.559-0.018-0.837C376.531,121.187,343.065,88,301.993,88  C260.642,88,227,121.642,227,162.993c0,11.046,8.954,20,20,20s20-8.954,20-20C267,143.698,282.698,128,301.993,128  c19.296,0,34.994,15.698,34.994,34.993c0,0.193,0.003,0.386,0.008,0.578c-0.221,13.827-8.521,26.208-21.273,31.653  c-20.489,8.747-33.729,28.957-33.729,51.488V248c0,11.046,8.954,20,20,20s20-8.954,20-20V246.713z"/>















</svg>
